# Blender 3.5.0
# www.blender.org
mtllib spot.mtl
o Cube
v 0.250000 -0.250000 -0.056205
v 0.250000 -0.250000 -0.000000
v 0.250000 0.250000 -0.056205
v 0.250000 0.250000 0.000000
v -0.250000 -0.250000 -0.056205
v -0.250000 -0.250000 -0.000000
v -0.250000 0.250000 -0.056205
v -0.250000 0.250000 0.000000
v 0.095182 -0.095182 -0.071294
v 0.095182 0.095182 -0.071294
v -0.095182 -0.095182 -0.071294
v -0.095182 0.095182 -0.071294
v 0.000000 0.000000 -0.500000
vn -0.0970 -0.0000 -0.9953
vn -0.0000 1.0000 -0.0000
vn -1.0000 -0.0000 -0.0000
vn -0.0000 -0.0000 1.0000
vn 1.0000 -0.0000 -0.0000
vn -0.0000 -1.0000 -0.0000
vn -0.9762 -0.0000 -0.2167
vn 0.0970 -0.0000 -0.9953
vn -0.0000 -0.0970 -0.9953
vn -0.0000 0.0970 -0.9953
vn -0.0000 0.9762 -0.2167
vn -0.0000 -0.9762 -0.2167
vn 0.9762 -0.0000 -0.2167
vt 0.625000 0.500000
vt 0.375000 0.500000
vt 0.625000 0.750000
vt 0.375000 0.750000
vt 0.625000 0.250000
vt 0.125000 0.500000
vt 0.375000 0.250000
vt 0.625000 0.000000
vt 0.625000 1.000000
vt 0.375000 1.000000
vt 0.375000 0.000000
vt 0.125000 0.750000
vt 0.625000 0.500000
vt 0.625000 0.750000
vt 0.625000 0.250000
vt 0.625000 0.000000
vt 0.625000 1.000000
vt 0.625000 0.250000
vt 0.625000 1.000000
vt 0.625000 0.500000
vt 0.625000 0.750000
s 0
usemtl Material
f 5/5/1 7/8/1 12/16/1 11/15/1
f 4/4/2 3/3/2 7/9/2 8/10/2
f 8/11/3 7/8/3 5/5/3 6/7/3
f 6/6/4 2/2/4 4/4/4 8/12/4
f 2/2/5 1/1/5 3/3/5 4/4/5
f 6/7/6 5/5/6 1/1/6 2/2/6
f 11/15/7 12/16/7 13/18/7
f 3/3/8 1/1/8 9/13/8 10/14/8
f 1/1/9 5/5/9 11/15/9 9/13/9
f 7/9/10 3/3/10 10/14/10 12/17/10
f 12/17/11 10/14/11 13/19/11
f 9/13/12 11/15/12 13/20/12
f 10/14/13 9/13/13 13/21/13
