# Blender 3.5.0
# www.blender.org
mtllib hex-tile.mtl
o Circle
v 0.000000 0.000000 -1.000000
v -0.866025 0.000000 -0.500000
v -0.866025 0.000000 0.500000
v 0.000000 0.000000 1.000000
v 0.866025 0.000000 0.500000
v 0.866025 0.000000 -0.500000
v 0.000000 0.499561 -0.907686
v -0.786079 0.499561 -0.453843
v -0.786079 0.499561 0.453843
v 0.000000 0.499561 0.907686
v 0.786079 0.499561 0.453843
v 0.786079 0.499561 -0.453843
v -0.866025 0.499561 -0.500000
v 0.000000 0.499561 -1.000000
v -0.866025 0.499561 0.500000
v 0.000000 0.499561 1.000000
v 0.866025 0.499561 0.500000
v 0.866025 0.499561 -0.500000
v -0.000000 0.458301 -0.907686
v -0.786079 0.458301 -0.453843
v -0.786079 0.458301 0.453843
v -0.000000 0.458301 0.907686
v 0.786079 0.458301 0.453843
v 0.786079 0.458301 -0.453843
vn 0.5000 -0.0000 -0.8660
vn 0.5000 -0.0000 0.8660
vn -1.0000 -0.0000 -0.0000
vn 1.0000 -0.0000 -0.0000
vn -0.5000 -0.0000 0.8660
vn -0.5000 -0.0000 -0.8660
vn -0.0000 -1.0000 -0.0000
vn -0.0000 1.0000 -0.0000
vt 0.000000 0.000000
vt 0.000000 0.000000
vt 0.000000 0.000000
vt 0.000000 0.000000
vt 0.000000 0.000000
vt 0.000000 0.000000
vt 0.000000 0.000000
vt 0.000000 0.000000
vt 0.000000 0.000000
vt 0.000000 0.000000
vt 0.000000 0.000000
vt 0.000000 0.000000
vt 0.000000 0.000000
vt 0.000000 0.000000
vt 0.000000 0.000000
vt 0.000000 0.000000
vt 0.000000 0.000000
vt 0.000000 0.000000
vt 0.000000 0.000000
vt 0.000000 0.000000
vt 0.000000 0.000000
vt 0.000000 0.000000
vt 0.000000 0.000000
vt 0.000000 0.000000
s 0
usemtl Face
f 20/20/8 21/21/8 22/22/8 23/23/8 24/24/8 19/19/8
usemtl Hex
f 1/1/1 14/14/1 18/18/1 6/6/1
f 5/5/2 17/17/2 16/16/2 4/4/2
f 3/3/3 15/15/3 13/13/3 2/2/3
f 6/6/4 18/18/4 17/17/4 5/5/4
f 4/4/5 16/16/5 15/15/5 3/3/5
f 2/2/6 13/13/6 14/14/6 1/1/6
f 9/9/4 21/21/4 20/20/4 8/8/4
f 2/2/7 1/1/7 6/6/7 5/5/7 4/4/7 3/3/7
f 7/7/8 14/14/8 13/13/8 8/8/8
f 8/8/8 13/13/8 15/15/8 9/9/8
f 9/9/8 15/15/8 16/16/8 10/10/8
f 10/10/8 16/16/8 17/17/8 11/11/8
f 11/11/8 17/17/8 18/18/8 12/12/8
f 12/12/8 18/18/8 14/14/8 7/7/8
f 12/12/3 24/24/3 23/23/3 11/11/3
f 10/10/1 22/22/1 21/21/1 9/9/1
f 8/8/2 20/20/2 19/19/2 7/7/2
f 7/7/5 19/19/5 24/24/5 12/12/5
f 11/11/6 23/23/6 22/22/6 10/10/6
